<?xml version="1.0" encoding="UTF-8" standalone="no"?>
<!-- Created with Inkscape (http://www.inkscape.org/) -->

<svg
   xmlns:dc="http://purl.org/dc/elements/1.1/"
   xmlns:cc="http://creativecommons.org/ns#"
   xmlns:rdf="http://www.w3.org/1999/02/22-rdf-syntax-ns#"
   xmlns:svg="http://www.w3.org/2000/svg"
   xmlns="http://www.w3.org/2000/svg"
   xmlns:sodipodi="http://sodipodi.sourceforge.net/DTD/sodipodi-0.dtd"
   xmlns:inkscape="http://www.inkscape.org/namespaces/inkscape"
   width="210mm"
   height="297mm"
   viewBox="0 0 744.09448 1052.3622"
   id="svg2"
   version="1.1"
   inkscape:version="0.91 r13725"
   sodipodi:docname="Cohete 2016 03.svg">
  <defs
     id="defs4" />
  <sodipodi:namedview
     id="base"
     pagecolor="#ffffff"
     bordercolor="#666666"
     borderopacity="1.0"
     inkscape:pageopacity="0.0"
     inkscape:pageshadow="2"
     inkscape:zoom="0.72"
     inkscape:cx="374.64912"
     inkscape:cy="708.44898"
     inkscape:document-units="px"
     inkscape:current-layer="layer1"
     showgrid="false"
     showguides="false"
     inkscape:window-width="1366"
     inkscape:window-height="705"
     inkscape:window-x="-8"
     inkscape:window-y="-8"
     inkscape:window-maximized="1" />
  <metadata
     id="metadata7">
    <rdf:RDF>
      <cc:Work
         rdf:about="">
        <dc:format>image/svg+xml</dc:format>
        <dc:type
           rdf:resource="http://purl.org/dc/dcmitype/StillImage" />
        <dc:title></dc:title>
      </cc:Work>
    </rdf:RDF>
  </metadata>
  <g
     inkscape:label="Capa 1"
     inkscape:groupmode="layer"
     id="layer1"
     transform="translate(0,-3.464567e-6)">
    <g
       transform="matrix(0.66315589,-0.74848131,0.74848131,0.66315589,-269.22177,498.446)"
       id="g4165" />
    <rect
       style="opacity:1;fill:#1a1a1a;fill-opacity:1;stroke:none;stroke-width:0.1;stroke-linejoin:round;stroke-miterlimit:4;stroke-dasharray:none;stroke-opacity:1"
       id="rect4384"
       width="309.59662"
       height="315.02814"
       x="217.24893"
       y="574.66699" />
    <path
       style="fill:#aa4400;fill-rule:evenodd;stroke:#000000;stroke-width:8.51278877;stroke-linecap:butt;stroke-linejoin:miter;stroke-miterlimit:4;stroke-dasharray:none;stroke-opacity:1"
       d="m 171.08531,678.66653 c -360.20701,181.80293 13.94532,320.56252 13.94532,320.56252 l 52.95195,-100.3406"
       id="path4238"
       inkscape:connector-curvature="0"
       sodipodi:nodetypes="ccc" />
    <path
       sodipodi:nodetypes="ccc"
       inkscape:connector-curvature="0"
       id="path4226"
       d="M 573.00918,678.66653 C 933.21619,860.46946 559.06385,999.22905 559.06385,999.22905 L 506.1119,898.88845"
       style="fill:#aa4400;fill-rule:evenodd;stroke:#000000;stroke-width:8.51278877;stroke-linecap:butt;stroke-linejoin:miter;stroke-miterlimit:4;stroke-dasharray:none;stroke-opacity:1" />
    <rect
       style="opacity:1;fill:#ff6600;fill-opacity:1;stroke:#000000;stroke-width:10.99058819;stroke-linejoin:round;stroke-miterlimit:4;stroke-dasharray:none;stroke-opacity:1"
       id="rect4166"
       width="100.43023"
       height="148.78551"
       x="321.74939"
       y="725.52515" />
    <ellipse
       style="opacity:1;fill:#0080e8;fill-opacity:1;stroke:#000000;stroke-width:7.89330435;stroke-linejoin:round;stroke-miterlimit:4;stroke-dasharray:none;stroke-opacity:1"
       id="path4172"
       cx="371.96451"
       cy="781.11267"
       rx="20.035488"
       ry="18.699787" />
    <rect
       style="opacity:1;fill:#ffff00;fill-opacity:1;stroke:none;stroke-width:0.1;stroke-linejoin:round;stroke-miterlimit:4;stroke-dasharray:none;stroke-opacity:1"
       id="rect4378"
       width="365.72232"
       height="162.94559"
       x="189.18608"
       y="488.16046" />
    <rect
       y="344.16046"
       x="189.18608"
       height="162.94559"
       width="365.72232"
       id="rect4380"
       style="opacity:1;fill:#ff0000;fill-opacity:1;stroke:none;stroke-width:0.1;stroke-linejoin:round;stroke-miterlimit:4;stroke-dasharray:none;stroke-opacity:1" />
    <rect
       style="opacity:1;fill:#0000ff;fill-opacity:1;stroke:none;stroke-width:0.1;stroke-linejoin:round;stroke-miterlimit:4;stroke-dasharray:none;stroke-opacity:1"
       id="rect4382"
       width="295.11258"
       height="123.11444"
       x="224.49095"
       y="242.62387" />
    <circle
       style="opacity:1;fill:#0080e8;fill-opacity:1;stroke:#000000;stroke-width:10.99058819;stroke-linejoin:round;stroke-miterlimit:4;stroke-dasharray:none;stroke-opacity:1"
       id="circle4183"
       cx="-533.97974"
       cy="237.25838"
       r="51.454994"
       transform="matrix(-0.26859556,-0.96325304,0.96325304,-0.26859556,0,0)" />
    <path
       style="opacity:1;fill:none;fill-opacity:1;stroke:none;stroke-width:1.80500531;stroke-linejoin:miter;stroke-miterlimit:4;stroke-dasharray:none;stroke-opacity:1"
       d="M 233.48489,874.08852 C 206.07341,823.52266 181.1284,755.72377 170.92406,704.05233 c -6.84533,-34.66259 -7.56992,-42.34663 -7.59453,-80.53777 -0.022,-32.08712 0.28372,-37.69104 2.8288,-52.07495 11.58511,-65.47491 42.0231,-151.63997 84.71783,-239.82257 8.93746,-18.45965 14.65271,-28.50582 21.08585,-37.06458 23.44394,-31.19005 49.46588,-51.22424 75.46421,-58.09954 12.0106,-3.17622 32.6545,-2.90171 44.99336,0.59832 28.82339,8.17601 59.0033,29.70399 79.18053,56.48122 17.95113,23.82293 58.6587,115.41167 81.08584,182.43645 22.57429,67.46463 30.1701,109.01682 28.67151,156.84474 -1.25496,40.05266 -7.47069,76.65536 -20.13003,118.54022 -4.70694,15.57344 -45.13953,112.68782 -52.89315,127.04315 l -5.07023,9.38722 -7.48434,-3.02304 c -10.02897,-4.05089 -25.99621,-7.24518 -48.85317,-9.77329 l -18.90814,-2.09133 0,-75.15784 c 0,-56.80291 -0.36339,-75.52117 -1.48786,-76.64567 -1.11082,-1.11082 -14.91804,-1.48786 -54.48441,-1.48786 l -52.99651,0 -1.93014,2.75565 c -1.69448,2.41917 -1.93011,11.77071 -1.93011,76.58863 l 0,73.83298 -22.70232,2.75416 c -23.63004,2.8667 -39.16125,6.18905 -46.96795,10.04713 l -4.57662,2.26176 -7.45759,-13.757 z M 388.61103,642.751 c 16.89048,-5.21693 30.47572,-17.82239 37.13451,-34.45623 2.35132,-5.87364 2.8459,-9.45067 2.86711,-20.73672 0.0247,-13.17439 -0.12913,-13.96304 -4.52494,-23.16813 -10.19557,-21.35049 -28.56657,-33.30835 -51.33412,-33.41391 -11.77173,-0.0546 -18.41267,1.50975 -28.016,6.5994 -20.62712,10.93218 -33.10738,35.84035 -29.5478,58.97176 3.36523,21.86872 20.24888,41.11591 40.94565,46.67764 9.83254,2.64224 23.0094,2.45 32.47559,-0.47381 z m 1.32019,-137.74139 c 9.97806,-3.33398 18.26694,-8.67648 24.59694,-15.85361 25.65063,-29.0835 16.68222,-73.7277 -18.1322,-90.261 -17.49524,-8.30846 -39.07772,-7.03239 -54.89495,3.24568 -24.87135,16.16146 -33.71111,46.33506 -21.35964,72.9089 4.10567,8.83322 14.17162,20.12751 22.05713,24.74871 13.6179,7.98063 33.08417,10.1059 47.73272,5.21132 z m -9.02824,-135.08596 c 34.19958,-5.333 56.08365,-40.39531 45.86402,-73.48259 -7.06554,-22.87556 -26.88726,-38.5182 -50.96006,-40.21588 -17.10126,-1.20602 -31.68089,4.22555 -43.98403,16.38611 -17.97024,17.76197 -22.16343,43.05442 -10.95166,66.05816 9.07612,18.62188 27.85288,30.75263 50.1127,32.37533 1.02288,0.0745 5.48644,-0.42994 9.91903,-1.12113 z"
       id="path4234"
       inkscape:connector-curvature="0" />
    <rect
       style="opacity:1;fill:#00ff00;fill-opacity:1;stroke:none;stroke-width:0.1;stroke-linejoin:round;stroke-miterlimit:4;stroke-dasharray:none;stroke-opacity:1"
       id="rect4388"
       width="166.56662"
       height="157.51407"
       x="288.76395"
       y="127.38185" />
    <rect
       y="65.824631"
       x="324.06882"
       height="110.4409"
       width="95.956871"
       id="rect4386"
       style="opacity:1;fill:#782167;fill-opacity:1;stroke:none;stroke-width:0.1;stroke-linejoin:round;stroke-miterlimit:4;stroke-dasharray:none;stroke-opacity:1" />
    <path
       style="fill:#008000;fill-rule:evenodd;stroke:#000000;stroke-width:12.28066158;stroke-linecap:butt;stroke-linejoin:miter;stroke-miterlimit:4;stroke-dasharray:none;stroke-opacity:1"
       d="m 330.40498,70.503506 c 28.48859,-22.573927 56.1807,-21.677848 83.53281,0.639281"
       id="path4240"
       inkscape:connector-curvature="0"
       sodipodi:nodetypes="cc" />
    <ellipse
       style="opacity:1;fill:#000000;fill-opacity:1;stroke:#000000;stroke-width:12.19936466;stroke-linejoin:round;stroke-miterlimit:4;stroke-dasharray:none;stroke-opacity:1"
       id="path4156"
       cx="371.73615"
       cy="897.93915"
       rx="130.41768"
       ry="20.036072" />
    <path
       style="fill:#008000;fill-rule:evenodd;stroke:#000000;stroke-width:12.2689476;stroke-linecap:butt;stroke-linejoin:miter;stroke-miterlimit:4;stroke-dasharray:none;stroke-opacity:1"
       d="m 331.92483,69.222256 c 0,0 -48.52702,33.499624 -85.66026,109.289304 -37.13323,75.78969 -86.40249,237.30781 -89.6349,356.42857 -4.9979,184.18241 84.45468,365.31908 84.45468,365.31908"
       id="path4140"
       inkscape:connector-curvature="0"
       sodipodi:nodetypes="czsc" />
    <path
       sodipodi:nodetypes="czsc"
       inkscape:connector-curvature="0"
       id="path3427"
       d="m 411.49574,69.222256 c 0,0 48.52703,33.499624 85.66026,109.289304 37.13324,75.78969 86.40249,237.30781 89.6349,356.42857 4.9979,184.18241 -84.45467,365.31908 -84.45467,365.31908"
       style="fill:#008000;fill-rule:evenodd;stroke:#000000;stroke-width:12.26913452;stroke-linecap:butt;stroke-linejoin:miter;stroke-miterlimit:4;stroke-dasharray:none;stroke-opacity:1" />
    <circle
       transform="matrix(-0.26859556,-0.96325304,0.96325304,-0.26859556,0,0)"
       r="51.454994"
       cy="282.38272"
       cx="-372.15259"
       id="circle4372"
       style="opacity:1;fill:#0080e8;fill-opacity:1;stroke:#000000;stroke-width:10.99058819;stroke-linejoin:round;stroke-miterlimit:4;stroke-dasharray:none;stroke-opacity:1" />
  </g>
</svg>
